<?xml version="1.0" encoding="utf-8"?>
<!-- Generator: Adobe Illustrator 23.0.2, SVG Export Plug-In . SVG Version: 6.00 Build 0)  -->
<svg version="1.1" id="Layer_1" xmlns="http://www.w3.org/2000/svg" xmlns:xlink="http://www.w3.org/1999/xlink" x="0px" y="0px"
	 viewBox="0 0 466 467" style="enable-background:new 0 0 466 467;" xml:space="preserve">
<style type="text/css">
	.st0{fill-rule:evenodd;clip-rule:evenodd;fill:#6D609E;stroke:#FFFFFF;}
	.st1{fill:none;stroke:#1F1A17;stroke-width:7;}
	.st2{fill:none;stroke:#1F1A17;}
	.st3{fill:#1F1A17;}
	.st4{fill-rule:evenodd;clip-rule:evenodd;fill:#1F1A17;stroke:#1F1A17;}
</style>
<g id="_94534544">
	<polygon id="_94172864" class="st0" points="297.7,239.7 336.2,217.5 336.2,210.6 323.1,203 323.1,187.2 336.2,179.6 336.2,172.9 
		297.9,150.8 259.3,173 259.3,217.5 	"/>
	<path id="_94172792" class="st0" d="M260.8,218.4c11.6-19.8,22.4-40.7,30.9-64L259.3,173v44.5L260.8,218.4L260.8,218.4z"/>
	<path id="_94172720" class="st0" d="M291.7,154.3l6.1-3.5l34.3,19.8c-19.8,21.1-41.2,38.2-64,52.1l-7.4-4.3
		C274.1,196.2,284.2,174.9,291.7,154.3L291.7,154.3z"/>
	<path id="_94172648" class="st0" d="M332.2,170.6l4.1,2.3v6.7l-13.1,7.6V203l13.1,7.5v3.5c-17.9,6.9-36.7,12-56.5,15.3l-11.5-6.6
		C291.6,208.5,312.8,190.9,332.2,170.6L332.2,170.6z"/>
	<path id="_94172576" class="st0" d="M336.2,214v3.5l-38.5,22.2l-18-10.4C298.5,226.3,317.3,220.8,336.2,214L336.2,214z"/>
	<polygon id="_94535360" class="st0" points="337.7,158.5 340.5,160.1 343.3,161.7 343.3,164.9 343.3,168.1 340.5,169.7 
		337.7,171.3 335,169.7 332.2,168.1 332.2,164.9 332.2,161.7 335,160.1 	"/>
	<polygon id="_94535288" class="st0" points="345.7,168.7 349.5,170.9 353.3,173.1 353.3,177.5 353.3,181.9 349.5,184.1 
		345.7,186.3 341.9,184.1 338.1,181.9 338.1,177.5 338.1,173.1 341.9,170.9 	"/>
	<polygon id="_94535216" class="st0" points="336.6,182.7 342,185.8 347.3,188.9 347.3,195 347.3,201.2 342,204.3 336.6,207.4 
		331.3,204.3 325.9,201.2 325.9,195 325.9,188.9 331.3,185.8 	"/>
	<path id="_94535144" class="st0" d="M334.6,169.5c2.4-2.7,5-5.7,7.7-8.4l1,0.6v6.4l-5.6,3.2L334.6,169.5L334.6,169.5z"/>
	<polygon id="_94535072" class="st0" points="254.1,216.7 255.3,216.4 255.3,194.8 237.3,184.4 218.9,195 218.9,215.7 237.3,226.3 
		239,225.3 239,217 246.6,212.6 	"/>
	<path id="_94535000" class="st0" d="M234.5,186c-0.4,12.5-0.8,22.8-1.3,37.9l-2-1.2c-2.5-10.4-7.2-20.5-10.5-28.8L234.5,186
		L234.5,186z"/>
	<polygon id="_94534928" class="st0" points="246.7,214.8 249.6,216.4 252.5,218.1 252.5,221.4 252.5,224.8 249.6,226.4 
		246.7,228.1 243.8,226.4 240.9,224.8 240.9,221.4 240.9,218.1 243.8,216.4 	"/>
	<polygon id="_94534856" class="st0" points="250.2,167.2 274.1,153.5 231.5,128.9 141.3,181 141.3,285.7 231.5,337.8 321.7,285.7 
		321.7,235 298,248.7 298,271 230.1,310.2 164,272 164,195 231.5,156.1 	"/>
	<polygon id="_94534784" class="st0" points="250.2,167.2 274.1,153.5 231.5,128.9 141.3,181 141.3,220.2 164,225.6 164,195 
		231.5,156.1 	"/>
	<path id="_94534712" class="st0" d="M141.3,220.2v43.1c7,0.2,14.5-0.2,22.7-0.7v-37C155.7,223.8,148.1,222,141.3,220.2z"/>
	<path id="_94534640" class="st0" d="M164,262.6v9.4l29.2,16.9c-4.1,3.1-18.7,8-28.7,10.3l-23.2-13.4v-22.4
		C148.9,263.3,156.5,263.1,164,262.6z"/>
	<path id="_94534568" class="st0" d="M164.5,299.1l66.9,38.7l90.2-52.1V235L298,248.7V271l-67.9,39.2l-36.9-21.3
		C183.9,293.2,175.6,296.4,164.5,299.1L164.5,299.1z"/>
</g>
<circle class="st1" cx="233.5" cy="232.9" r="224.8"/>
<circle class="st2" cx="233.5" cy="232.9" r="216.4"/>
<circle class="st2" cx="233.5" cy="232.9" r="144"/>
<path class="st3" d="M89.2,181l-3.7,9.1l-44.1-17.8l3.7-9.1C45.1,163.1,89.2,181,89.2,181z M88.6,104L80,115.8l32.1,23.3l-5.8,7.9
	l-32.1-23.3l-8.5,11.6l-6.4-4.7l22.8-31.4L88.6,104L88.6,104z M129.4,97.9l-6.2,4.7l10.5,13.9l-7.8,5.9l-28.6-38l14.1-10.6
	c4.5-3.4,8.7-5,12.6-4.8c3.9,0.2,7.3,2.1,10,5.7c2,2.6,3,5.2,3.2,7.8c0.2,2.6-0.5,5.2-2,8l19.9,9.3l0.3,0.4l-8.4,6.3L129.4,97.9
	L129.4,97.9z M118.3,96.2l6.3-4.8c2-1.5,3.1-3.1,3.4-4.9c0.3-1.8-0.2-3.6-1.5-5.4c-1.3-1.8-2.9-2.8-4.7-3.1c-1.8-0.3-3.7,0.4-5.8,2
	l-6.3,4.7L118.3,96.2L118.3,96.2z M177.2,39l11.7,29.1c2,4.8,2,9.3,0.1,13.3c-1.9,4-5.4,7.1-10.7,9.2c-5.2,2.1-9.8,2.4-13.9,0.9
	c-4.1-1.5-7.2-4.6-9.2-9.4l-11.9-29.4l9.1-3.7l11.8,29.1c1.2,2.9,2.7,4.7,4.6,5.5c1.9,0.8,4.1,0.7,6.6-0.3c5.1-2.1,6.6-5.8,4.5-11.2
	L168,42.7L177.2,39L177.2,39z M228.4,67c-0.1-1.8-0.9-3.2-2.3-4.1s-3.8-1.8-7.3-2.6c-3.5-0.9-6.2-1.8-8.3-2.7
	c-5.6-2.5-8.6-6.3-8.9-11.2c-0.2-2.6,0.4-4.9,1.7-7s3.3-3.8,5.9-5.2c2.6-1.3,5.6-2.1,9-2.3c3.4-0.2,6.5,0.2,9.2,1.2
	c2.7,1,4.9,2.6,6.6,4.8c1.6,2.1,2.5,4.6,2.7,7.5l-9.8,0.7c-0.2-2.2-0.9-3.8-2.4-4.9s-3.4-1.6-5.9-1.4c-2.4,0.2-4.2,0.8-5.5,1.9
	s-1.8,2.5-1.7,4.1c0.1,1.5,1,2.8,2.6,3.7c1.6,0.9,4,1.8,7.1,2.5c5.7,1.3,9.9,3.1,12.6,5.4c2.7,2.3,4.2,5.3,4.5,9c0.3,4.1-1,7.4-4,10
	c-2.9,2.6-7,4-12.3,4.4c-3.6,0.3-7-0.2-10.1-1.3c-3.1-1.1-5.5-2.8-7.2-5s-2.7-4.9-2.9-7.9l9.8-0.7c0.4,5.2,3.7,7.6,9.9,7.2
	c2.3-0.2,4.1-0.8,5.4-1.8C227.9,70.1,228.5,68.7,228.4,67L228.4,67z M288,45.8l-14.4-2L268,83l-9.7-1.4l5.5-39.3l-14.2-2l1.1-7.9
	l38.4,5.4L288,45.8z M331.5,82.9L351.3,70l9.1,5.7l-29.3,17.4l-9.1,14.6l-8.5-5.3l9.1-14.6l2.8-34l9.1,5.7L331.5,82.9L331.5,82.9z
	 M381.9,133.7c-3.4,3.3-6.9,5.5-10.6,6.8s-7.3,1.4-10.8,0.6c-3.5-0.9-6.7-2.8-9.4-5.6c-2.7-2.8-4.5-6-5.3-9.6
	c-0.8-3.5-0.5-7.1,0.9-10.8c1.3-3.7,3.7-7.1,6.9-10.3l1.7-1.6c3.4-3.3,6.9-5.5,10.7-6.8c3.7-1.3,7.4-1.4,10.9-0.6
	c3.5,0.9,6.6,2.8,9.4,5.6s4.5,6,5.3,9.6c0.8,3.5,0.5,7.2-0.9,10.9s-3.8,7.2-7.1,10.4L381.9,133.7L381.9,133.7z M376.6,125
	c3.6-3.5,5.7-6.7,6.3-9.8c0.6-3.1-0.2-5.8-2.5-8.2s-5-3.3-8.1-2.8s-6.4,2.5-10,5.9l-1.7,1.6c-3.5,3.4-5.6,6.6-6.3,9.8
	c-0.7,3.1,0.1,5.9,2.5,8.3c2.3,2.4,5,3.3,8.1,2.8s6.4-2.5,10-5.9L376.6,125L376.6,125z M426.1,173.2l-29,11.8c-4.8,2-9.3,2-13.3,0.1
	s-7.1-5.4-9.2-10.7c-2.1-5.2-2.4-9.8-0.9-13.9c1.5-4.1,4.6-7.2,9.4-9.2l29.4-11.9l3.7,9.1L387,160.3c-2.9,1.2-4.7,2.7-5.5,4.6
	c-0.8,1.9-0.7,4.1,0.3,6.6c2.1,5.1,5.8,6.6,11.2,4.5l29.4-11.9L426.1,173.2L426.1,173.2z"/>
<path class="st3" d="M59.6,276.8c2.5-0.8,4.7-1,6.7-0.8c1.4,0.2,2.8,0.6,4.1,1.3c1.3,0.7,2.4,1.5,3.2,2.5c1.1,1.3,2,3,2.6,5
	c1.1,3.6,0.9,6.9-0.7,9.7c-1.6,2.9-4.4,4.9-8.4,6.1s-7.4,1.1-10.3-0.4s-4.9-4-6-7.6c-1.1-3.7-0.9-6.9,0.7-9.8
	C52.9,280,55.7,278,59.6,276.8L59.6,276.8z M61.3,281.8c-2.8,0.9-4.7,2.1-5.8,3.9c-1,1.7-1.3,3.6-0.7,5.6c0.6,2,1.8,3.4,3.6,4.2
	c1.8,0.8,4.2,0.8,7-0.1s4.7-2.1,5.8-3.8c1-1.7,1.2-3.5,0.6-5.6s-1.8-3.5-3.6-4.3C66.5,281,64.2,281,61.3,281.8z M61,317.6l22.5-12.5
	l4,7.3c1.5,2.8,2.4,4.6,2.7,5.6c0.4,1.5,0.2,3-0.4,4.5c-0.7,1.5-1.9,2.7-3.7,3.7c-1.4,0.8-2.7,1.2-3.9,1.2c-1.2,0-2.3-0.2-3.3-0.7
	s-1.8-1.1-2.4-1.8c-0.8-1-1.8-2.5-2.9-4.5l-1.6-3l-8.5,4.7L61,317.6L61,317.6z M82.2,311.8l-6.4,3.5l1.4,2.5c1,1.8,1.8,2.9,2.3,3.4
	c0.6,0.5,1.2,0.7,1.9,0.8c0.7,0.1,1.4-0.1,2-0.5c0.8-0.5,1.4-1.1,1.6-1.8c0.3-0.8,0.3-1.6,0-2.4c-0.2-0.6-0.8-1.7-1.7-3.4
	L82.2,311.8L82.2,311.8z M79.1,346.6l20.3-15.9l11.8,15.1l-3.4,2.7l-8.6-11l-4.5,3.5l8,10.2l-3.4,2.7l-8-10.2l-5.5,4.3l8.9,11.3
	l-3.4,2.7L79.1,346.6L79.1,346.6z M101.6,372.5l16.9-19.4l3.8,3.3l-3.3,19.9l11.3-13l3.6,3.2L117,386l-3.9-3.4l3.2-19.5l-11,12.7
	L101.6,372.5L101.6,372.5z M138.8,399.7l12.1-22.8l9.7,5.1c2.4,1.3,4.1,2.4,5,3.4s1.4,2.2,1.5,3.6s-0.2,2.8-0.9,4.1
	c-0.9,1.7-2.2,2.9-3.8,3.4c-1.6,0.6-3.5,0.5-5.6-0.3c0.7,1.1,1.2,2.2,1.4,3.2c0.3,1,0.5,2.7,0.6,5.1l0.4,5.9l-5.5-2.9l-0.7-6.7
	c-0.2-2.4-0.5-3.9-0.6-4.6c-0.2-0.7-0.5-1.2-0.9-1.7c-0.4-0.4-1.1-0.9-2.2-1.5l-0.9-0.5l-5.1,9.5L138.8,399.7L138.8,399.7z
	 M150.4,389.1l3.4,1.8c2.2,1.2,3.6,1.8,4.3,1.9c0.6,0.1,1.2,0,1.8-0.3c0.5-0.3,1-0.8,1.4-1.5c0.4-0.8,0.5-1.5,0.4-2.2
	c-0.2-0.7-0.6-1.3-1.3-1.8c-0.3-0.2-1.4-0.9-3.3-1.9l-3.6-1.9L150.4,389.1z M171.7,414.8l7.5-24.6l18.3,5.6l-1.3,4.2l-13.3-4.1
	l-1.7,5.5l12.4,3.8l-1.3,4.1l-12.4-3.8l-2.1,6.7l13.8,4.2l-1.3,4.2L171.7,414.8L171.7,414.8z M222.3,415.2l4.9,2
	c-1,2.7-2.5,4.7-4.4,5.9c-1.9,1.2-4.2,1.7-7,1.4c-3.4-0.3-6.1-1.7-8.1-4.2s-2.8-5.8-2.5-9.8c0.4-4.3,1.8-7.5,4.2-9.7s5.4-3.1,9-2.8
	c3.1,0.3,5.6,1.4,7.4,3.5c1.1,1.2,1.8,2.9,2.2,5l-5.2,0.8c-0.2-1.4-0.7-2.5-1.6-3.3c-0.9-0.9-2-1.3-3.4-1.5
	c-1.9-0.2-3.5,0.4-4.8,1.6c-1.3,1.3-2.1,3.4-2.4,6.5c-0.3,3.2,0.1,5.6,1.1,7.1s2.5,2.3,4.4,2.5c1.4,0.1,2.6-0.2,3.7-1
	C220.8,418.4,221.7,417.1,222.3,415.2L222.3,415.2z M239.1,412.3c-0.2-2.6,0-4.8,0.6-6.7c0.5-1.4,1.2-2.6,2.1-3.7s2-2,3.1-2.6
	c1.5-0.8,3.4-1.3,5.4-1.5c3.8-0.3,6.9,0.6,9.4,2.7s3.9,5.3,4.3,9.5c0.4,4.1-0.5,7.5-2.5,10s-5,4-8.7,4.3c-3.8,0.3-7-0.6-9.4-2.7
	C240.9,419.5,239.5,416.4,239.1,412.3L239.1,412.3z M244.5,411.7c0.3,2.9,1.1,5.1,2.6,6.4c1.5,1.4,3.2,2,5.3,1.8
	c2.1-0.2,3.7-1.1,4.9-2.7c1.2-1.6,1.7-3.9,1.4-6.9c-0.3-2.9-1.1-5.1-2.5-6.4s-3.2-1.9-5.3-1.7c-2.1,0.2-3.8,1.1-5,2.7
	C244.7,406.5,244.2,408.7,244.5,411.7L244.5,411.7z M287.8,407.1l-1.3-4.2l10.7-3.3l3,9.8c-0.7,1.3-2,2.7-3.7,4.1s-3.6,2.4-5.7,3
	c-2.6,0.8-5,0.9-7.2,0.4s-4.2-1.6-5.7-3.3c-1.6-1.7-2.7-3.8-3.5-6.1c-0.8-2.6-0.9-5-0.5-7.3c0.5-2.3,1.6-4.3,3.3-6
	c1.3-1.3,3.2-2.3,5.5-3c3.1-0.9,5.6-1,7.8-0.3c2.1,0.8,3.8,2.2,5,4.3l-4.7,2.4c-0.7-1.1-1.7-1.9-2.8-2.3c-1.2-0.4-2.5-0.4-3.9,0
	c-2.2,0.7-3.7,1.9-4.6,3.7c-0.9,1.8-0.9,4,0,6.7c0.9,2.9,2.2,4.9,4,6c1.7,1.1,3.7,1.3,5.8,0.6c1-0.3,2-0.8,3-1.6
	c0.9-0.7,1.7-1.5,2.2-2.3l-1-3.1L287.8,407.1L287.8,407.1z M315.5,406.6l-12.1-22.8l4.5-2.4l17.4,10.2l-8.1-15.2l4.3-2.3l12.1,22.8
	l-4.6,2.5l-17.1-10l7.9,14.8L315.5,406.6z M346.4,388.1l-15.1-20.8l4.2-3.1l15.1,20.8L346.4,388.1z M366.4,371.4L351.5,356l-5.5,5.3
	l-3-3.1l14.7-14.2l3,3.1l-5.5,5.3l14.9,15.4L366.4,371.4L366.4,371.4z M384.1,352l-20-16.2l3.3-4l20,16.2L384.1,352L384.1,352z
	 M384.6,330.1c-2.3-1.3-4-2.7-5.2-4.2c-0.9-1.1-1.5-2.4-1.9-3.8s-0.6-2.7-0.4-4c0.2-1.7,0.8-3.5,1.8-5.4c1.8-3.3,4.3-5.4,7.5-6.3
	s6.6-0.3,10.2,1.8c3.6,2,5.9,4.6,6.9,7.7s0.5,6.3-1.3,9.6c-1.9,3.4-4.4,5.5-7.5,6.3C391.5,332.7,388.1,332.1,384.6,330.1
	L384.6,330.1z M387,325.4c2.6,1.4,4.8,1.9,6.8,1.4s3.5-1.6,4.5-3.4s1.2-3.7,0.5-5.6s-2.3-3.6-4.9-5s-4.8-1.9-6.7-1.5
	c-1.9,0.4-3.4,1.6-4.4,3.5s-1.2,3.7-0.6,5.6S384.4,323.9,387,325.4L387,325.4z M413.2,300.9l-24.5-8l1.6-4.8l19.6-4.7l-16.4-5.3
	l1.5-4.6l24.5,8l-1.6,5l-19.2,4.7l16,5.2L413.2,300.9L413.2,300.9z"/>
<polygon class="st4" points="55,212.6 63.7,217.6 72.4,222.6 72.4,232.7 72.4,242.8 63.7,247.8 55,252.8 46.3,247.8 37.5,242.8 
	37.5,232.7 37.5,222.6 46.3,217.6 "/>
<polygon class="st4" points="414.6,210.9 423.3,215.9 432,220.9 432,231 432,241.1 423.3,246.1 414.6,251.1 405.9,246.1 
	397.2,241.1 397.2,231 397.2,220.9 405.9,215.9 "/>
<path class="st1" d="M540,258"/>
</svg>
