<?xml version="1.0" encoding="utf-8"?>
<!-- Generator: Adobe Illustrator 23.0.2, SVG Export Plug-In . SVG Version: 6.00 Build 0)  -->
<svg version="1.1" id="Layer_1" xmlns="http://www.w3.org/2000/svg" xmlns:xlink="http://www.w3.org/1999/xlink" x="0px" y="0px"
	 viewBox="0 0 400 391" style="enable-background:new 0 0 400 391;" xml:space="preserve">
<style type="text/css">
	.st0{fill-rule:evenodd;clip-rule:evenodd;fill:#6D609E;stroke:#FFFFFF;}
</style>
<polygon class="st0" points="292,205.9 362.6,165.6 362.6,153.1 338.5,139.4 338.5,110.7 362.7,96.9 362.7,84.8 292.3,44.6 
	221.7,84.9 221.7,165.6 "/>
<path class="st0" d="M224.5,167.2c21.4-35.8,41-73.7,56.7-116.1L221.9,85v80.5L224.5,167.2L224.5,167.2z"/>
<path class="st0" d="M281,51.1l11.3-6.4l62.9,36C319,118.8,279.7,149.9,238,175l-13.6-7.7C248.8,127,267.3,88.5,281,51.1L281,51.1z"
	/>
<path class="st0" d="M355.3,80.6l7.4,4.2v12.1l-24.2,13.7v28.6l24,13.7v6.2c-32.8,12.5-67.4,21.7-103.5,27.7l-21.1-12.1
	C280.8,149.3,319.7,117.5,355.3,80.6L355.3,80.6z"/>
<path class="st0" d="M362.6,159.3v6.2L292,205.9L259.1,187C293.5,181.6,328,171.7,362.6,159.3L362.6,159.3z"/>
<polygon class="st0" points="365.4,58.8 370.5,61.6 375.6,64.5 375.6,70.3 375.6,76.1 370.5,79.1 365.4,82 360.4,79.1 355.3,76.1 
	355.3,70.3 355.3,64.5 360.4,61.6 "/>
<polygon class="st0" points="380,77.2 387,81.1 394,85.1 394,93.1 394,101.1 387,105 380,109.1 373,105 366,101.1 366,93.1 
	366,85.1 373,81.1 "/>
<polygon class="st0" points="363.4,102.6 373.3,108.2 383,113.7 383,124.9 383,136.1 373.3,141.7 363.4,147.3 353.6,141.7 
	343.8,136.1 343.8,124.9 343.8,113.7 353.6,108.2 "/>
<path class="st0" d="M359.7,78.7c4.4-4.9,9.2-10.3,14.1-15.2l1.8,1v11.7L365.4,82L359.7,78.7L359.7,78.7z"/>
<polygon class="st0" points="212.3,164.2 214.5,163.7 214.5,124.4 181.4,105.6 147.6,124.9 147.6,162.3 181.2,181.6 184.4,179.7 
	184.4,164.8 198.4,156.8 "/>
<path class="st0" d="M176.2,108.6c-0.8,22.7-1.5,41.3-2.5,68.7l-3.7-2c-4.5-18.9-13.3-37.2-19.2-52.1L176.2,108.6L176.2,108.6z"/>
<polygon class="st0" points="198.5,160.7 203.9,163.7 209.1,166.7 209.1,172.8 209.1,178.7 203.9,181.9 198.5,184.8 193.2,181.9 
	188,178.7 188,172.8 188,166.7 193.2,163.7 "/>
<polygon class="st0" points="205.1,74.5 248.8,49.5 170.8,5 5.4,99.5 5.4,289.4 170.7,383.7 336.1,289.2 336.1,197.3 292.7,222 
	292.7,262.5 168.2,333.6 47,264.4 47,124.9 170.7,54.4 "/>
<polygon class="st0" points="205.1,74.5 248.8,49.5 170.8,5 5.4,99.5 5.4,170.6 47,180.4 47,124.9 170.7,54.4 "/>
<path class="st0" d="M5.4,170.5v78.2c12.8,0.4,26.6-0.4,41.6-1.2v-67.2C31.8,177,17.8,173.7,5.4,170.5L5.4,170.5z"/>
<path class="st0" d="M47,247.4v17.1l53.5,30.5c-7.5,5.7-34.2,14.5-52.6,18.6L5.3,289.3v-40.7C19.3,248.6,33.1,248.4,47,247.4
	L47,247.4z"/>
<path class="st0" d="M48,313.7l122.7,70l165.4-94.5v-91.9L292.7,222v40.4l-124.5,71.1L100.7,295C83.4,302.9,68.3,308.6,48,313.7
	L48,313.7z"/>
</svg>
